<?xml version="1.0" encoding="UTF-8" standalone="no"?>
<!-- Created with Inkscape (http://www.inkscape.org/) -->

<svg
   width="8.5in"
   height="11in"
   viewBox="0 0 215.9 279.4"
   version="1.1"
   id="svg1"
   inkscape:version="1.3.2 (091e20e, 2023-11-25, custom)"
   sodipodi:docname="topdown.svg"
   inkscape:export-filename="topdown.png"
   inkscape:export-xdpi="96"
   inkscape:export-ydpi="96"
   xmlns:inkscape="http://www.inkscape.org/namespaces/inkscape"
   xmlns:sodipodi="http://sodipodi.sourceforge.net/DTD/sodipodi-0.dtd"
   xmlns="http://www.w3.org/2000/svg"
   xmlns:svg="http://www.w3.org/2000/svg">
  <sodipodi:namedview
     id="namedview1"
     pagecolor="#787878"
     bordercolor="#000000"
     borderopacity="0.25"
     inkscape:showpageshadow="2"
     inkscape:pageopacity="0.0"
     inkscape:pagecheckerboard="0"
     inkscape:deskcolor="#d1d1d1"
     inkscape:document-units="mm"
     inkscape:zoom="1.09375"
     inkscape:cx="276.57143"
     inkscape:cy="562.74286"
     inkscape:window-width="2560"
     inkscape:window-height="1351"
     inkscape:window-x="-9"
     inkscape:window-y="-9"
     inkscape:window-maximized="1"
     inkscape:current-layer="svg1"
     inkscape:export-bgcolor="#787878ff" />
  <defs
     id="defs1" />
  <path
     d="M -87.195488,-112.84122 V 279.4 m 5.571608,-392.24122 V 279.4 m 5.571608,-392.24122 V 279.4 m 5.571609,-392.24122 V 279.4 m 5.571608,-392.24122 V 279.4 m 5.571608,-392.24122 V 279.4 m 5.571608,-392.24122 V 279.4 m 5.571609,-392.24122 V 279.4 m 5.571608,-392.24122 V 279.4 m 5.571608,-392.24122 V 279.4 m 5.571608,-392.24122 V 279.4 m 5.571609,-392.24122 V 279.4 m 5.571608,-392.24122 V 279.4 m 5.571608,-392.24122 V 279.4 m 5.5716083,-392.24122 V 279.4 m 5.5716082,-392.24122 V 279.4 M 1.9502438,-112.84122 V 279.4 M 7.521852,-112.84122 V 279.4 M 13.09346,-112.84122 V 279.4 m 5.571608,-392.24122 V 279.4 m 5.571609,-392.24122 V 279.4 m 5.571608,-392.24122 V 279.4 m 5.571608,-392.24122 V 279.4 m 5.571608,-392.24122 V 279.4 M 46.52311,-112.84122 V 279.4 m 5.571608,-392.24122 V 279.4 m 5.571608,-392.24122 V 279.4 m 5.571608,-392.24122 V 279.4 m 5.571609,-392.24122 V 279.4 m 5.571608,-392.24122 V 279.4 m 5.571608,-392.24122 V 279.4 m 5.571608,-392.24122 V 279.4 m 5.571609,-392.24122 V 279.4 m 5.571608,-392.24122 V 279.4 m 5.571606,-392.24122 V 279.4 m 5.57161,-392.24122 V 279.4 m 5.57161,-392.24122 V 279.4 m 5.57161,-392.24122 V 279.4 m 5.5716,-392.24122 V 279.4 m 5.57161,-392.24122 V 279.4 m 5.57161,-392.24122 V 279.4 m 5.57161,-392.24122 V 279.4 m 5.57161,-392.24122 V 279.4 m 5.57161,-392.24122 V 279.4 m 5.5716,-392.24122 V 279.4 m 5.57161,-392.24122 V 279.4 m 5.57161,-392.24122 V 279.4 m 5.57161,-392.24122 V 279.4 m 5.57161,-392.24122 V 279.4 m 5.57161,-392.24122 V 279.4 m 5.5716,-392.24122 V 279.4 m 5.57161,-392.24122 V 279.4 m 5.57161,-392.24122 V 279.4 m 5.57161,-392.24122 V 279.4 m 5.57161,-392.24122 V 279.4 M -87.195488,-112.84122 H 215.9 m -303.095488,5.57161 H 215.9 M -87.195488,-101.698 H 215.9 m -303.095488,5.571605 H 215.9 m -303.095488,5.571608 H 215.9 m -303.095488,5.571608 H 215.9 M -87.195488,-79.41157 H 215.9 m -303.095488,5.571608 H 215.9 m -303.095488,5.571608 H 215.9 m -303.095488,5.571608 H 215.9 m -303.095488,5.571609 H 215.9 m -303.095488,5.571608 H 215.9 m -303.095488,5.571608 H 215.9 m -303.095488,5.571608 H 215.9 m -303.095488,5.571609 H 215.9 m -303.095488,5.571608 H 215.9 m -303.095488,5.571608 H 215.9 M -87.195488,-18.12388 H 215.9 m -303.095488,5.571608 H 215.9 M -87.195488,-6.9806633 H 215.9 M -87.195488,-1.409055 H 215.9 M -87.195488,4.1625532 H 215.9 M -87.195488,9.7341614 H 215.9 M -87.195488,15.30577 H 215.9 M -87.195488,20.877378 H 215.9 M -87.195488,26.448986 H 215.9 M -87.195488,32.020594 H 215.9 M -87.195488,37.592203 H 215.9 M -87.195488,43.163811 H 215.9 M -87.195488,48.735419 H 215.9 M -87.195488,54.307027 H 215.9 M -87.195488,59.878636 H 215.9 M -87.195488,65.450244 H 215.9 M -87.195488,71.021852 H 215.9 M -87.195488,76.59346 H 215.9 M -87.195488,82.165068 H 215.9 M -87.195488,87.736677 H 215.9 M -87.195488,93.308285 H 215.9 M -87.195488,98.879893 H 215.9 M -87.195488,104.4515 H 215.9 m -303.095488,5.57161 H 215.9 m -303.095488,5.57161 H 215.9 m -303.095488,5.57161 H 215.9 m -303.095488,5.5716 H 215.9 m -303.095488,5.57161 H 215.9 m -303.095488,5.57161 H 215.9 m -303.095488,5.57161 H 215.9 m -303.095488,5.57161 H 215.9 m -303.095488,5.57161 H 215.9 m -303.095488,5.5716 H 215.9 m -303.095488,5.57161 H 215.9 M -87.195488,171.3108 H 215.9 m -303.095488,5.57161 H 215.9 m -303.095488,5.57161 H 215.9 m -303.095488,5.5716 H 215.9 m -303.095488,5.57161 H 215.9 m -303.095488,5.57161 H 215.9 m -303.095488,5.57161 H 215.9 m -303.095488,5.57161 H 215.9 m -303.095488,5.57161 H 215.9 m -303.095488,5.5716 H 215.9 m -303.095488,5.57161 H 215.9 m -303.095488,5.57161 H 215.9 M -87.195488,238.1701 H 215.9 m -303.095488,5.57161 H 215.9 m -303.095488,5.57161 H 215.9 m -303.095488,5.5716 H 215.9 m -303.095488,5.57161 H 215.9 m -303.095488,5.57161 H 215.9 m -303.095488,5.57161 H 215.9 m -303.095488,5.57161 H 215.9"
     style="fill:none;stroke:#000000;stroke-width:0.37144px;stroke-opacity:0.506329"
     id="path119" />
  <circle
     style="fill:#ffffff;stroke:#000000;stroke-width:1.06109;stroke-opacity:0.994937"
     id="path120"
     cx="170.06776"
     cy="269.526"
     r="8.9164686" />
  <rect
     style="fill:#ffffff;stroke:#000000;stroke-width:1.1231;stroke-linecap:round;stroke-linejoin:round;stroke-dasharray:none;stroke-opacity:0.994937"
     id="rect121"
     width="23.46468"
     height="40.792446"
     x="156.66045"
     y="214.14024" />
  <circle
     style="fill:#ffffff;stroke:#000000;stroke-width:1.12309;stroke-linecap:round;stroke-linejoin:round;stroke-dasharray:none;stroke-opacity:0.994937"
     id="path124"
     cx="117.3652"
     cy="128.45358"
     r="36.099506" />
  <text
     xml:space="preserve"
     style="font-size:4.45729px;fill:#ffffff;stroke:#000000;stroke-width:1.12309;stroke-linecap:round;stroke-linejoin:round;stroke-dasharray:none;stroke-opacity:0.994937"
     x="90.31147"
     y="117.74829"
     id="text125"><tspan
       sodipodi:role="line"
       id="tspan125"
       style="fill:#000000;fill-opacity:1;stroke:none;stroke-width:1.1231"
       x="90.31147"
       y="117.74829">Main tree, acts as the final</tspan><tspan
       sodipodi:role="line"
       style="fill:#000000;fill-opacity:1;stroke:none;stroke-width:1.1231"
       x="90.31147"
       y="123.3199"
       id="tspan126">challenge</tspan></text>
  <text
     xml:space="preserve"
     style="font-size:4.45729px;fill:#ffffff;stroke:#000000;stroke-width:1.12309;stroke-linecap:round;stroke-linejoin:round;stroke-dasharray:none;stroke-opacity:0.994937"
     x="158.54077"
     y="232.73347"
     id="text128-9-4"><tspan
       sodipodi:role="line"
       style="fill:#000000;fill-opacity:1;stroke:none;stroke-width:1.1231"
       x="158.54077"
       y="232.73347"
       id="tspan129-2">Area 1</tspan><tspan
       sodipodi:role="line"
       style="fill:#000000;fill-opacity:1;stroke:none;stroke-width:1.1231"
       x="158.54077"
       y="238.30508"
       id="tspan131">(tutorial)</tspan></text>
  <rect
     style="fill:#ffffff;stroke:#000000;stroke-width:1.1231;stroke-linecap:round;stroke-linejoin:round;stroke-dasharray:none;stroke-opacity:0.994937"
     id="rect121-2"
     width="23.46468"
     height="40.792446"
     x="35.312508"
     y="217.71597"
     transform="rotate(-27.19603)" />
  <text
     xml:space="preserve"
     style="font-size:4.45729px;fill:#ffffff;stroke:#000000;stroke-width:1.12309;stroke-linecap:round;stroke-linejoin:round;stroke-dasharray:none;stroke-opacity:0.994937"
     x="40.866962"
     y="236.70128"
     id="text128-9-4-5"
     transform="rotate(-27.19603)"><tspan
       sodipodi:role="line"
       style="fill:#000000;fill-opacity:1;stroke:none;stroke-width:1.1231"
       x="40.866962"
       y="236.70128"
       id="tspan131-9">Area 2</tspan></text>
  <text
     xml:space="preserve"
     style="font-size:4.45729px;fill:#000000;fill-opacity:1;stroke:none;stroke-width:1.12309;stroke-linecap:round;stroke-linejoin:round;stroke-dasharray:none;stroke-opacity:0.994937"
     x="165.55388"
     y="270.74011"
     id="text130"><tspan
       sodipodi:role="line"
       id="tspan130"
       style="stroke-width:1.1231"
       x="165.55388"
       y="270.74011">Start</tspan></text>
  <circle
     style="fill:#d3acf1;fill-opacity:1;stroke:none;stroke-width:0.799999;stroke-linecap:round;stroke-linejoin:round;stroke-dasharray:none;stroke-opacity:0.994937"
     id="path132"
     cx="83.559143"
     cy="191.83539"
     r="8.1249933" />
  <circle
     style="fill:#d3acf1;fill-opacity:1;stroke:none;stroke-width:0.799999;stroke-linecap:round;stroke-linejoin:round;stroke-dasharray:none;stroke-opacity:0.994937"
     id="path133"
     cx="106.73676"
     cy="216.21034"
     r="4.2763124" />
  <circle
     style="fill:#d3acf1;fill-opacity:1;stroke:none;stroke-width:0.799999;stroke-linecap:round;stroke-linejoin:round;stroke-dasharray:none;stroke-opacity:0.994937"
     id="path134"
     cx="110.41438"
     cy="237.50639"
     r="4.7039437" />
  <circle
     style="fill:#d3acf1;fill-opacity:1;stroke:none;stroke-width:0.799999;stroke-linecap:round;stroke-linejoin:round;stroke-dasharray:none;stroke-opacity:0.994937"
     id="path135"
     cx="125.72358"
     cy="260.85504"
     r="6.4999948" />
  <circle
     style="fill:#d3acf1;fill-opacity:1;stroke:none;stroke-width:0.799999;stroke-linecap:round;stroke-linejoin:round;stroke-dasharray:none;stroke-opacity:0.994937"
     id="path136"
     cx="102.11834"
     cy="266.84189"
     r="2.0526299" />
  <ellipse
     style="fill:#d3acf1;fill-opacity:1;stroke:none;stroke-width:0.799999;stroke-linecap:round;stroke-linejoin:round;stroke-dasharray:none;stroke-opacity:0.994937"
     id="path137"
     cx="95.558907"
     cy="256.40768"
     rx="3.8747625"
     ry="2.3947351" />
  <circle
     style="fill:#d3acf1;fill-opacity:1;stroke:none;stroke-width:0.799999;stroke-linecap:round;stroke-linejoin:round;stroke-dasharray:none;stroke-opacity:0.994937"
     id="path138"
     cx="100.74992"
     cy="183.53932"
     r="2.2236826" />
  <circle
     style="fill:#d3acf1;fill-opacity:1;stroke:none;stroke-width:0.799999;stroke-linecap:round;stroke-linejoin:round;stroke-dasharray:none;stroke-opacity:0.994937"
     id="path139"
     cx="119.22359"
     cy="204.40773"
     r="3.2499974" />
  <ellipse
     style="fill:#d3acf1;fill-opacity:1;stroke:none;stroke-width:0.799999;stroke-linecap:round;stroke-linejoin:round;stroke-dasharray:none;stroke-opacity:0.994937"
     id="path140"
     cx="135.64462"
     cy="225.78931"
     rx="1.8815775"
     ry="3.763155" />
  <circle
     style="fill:#d3acf1;fill-opacity:1;stroke:none;stroke-width:0.799999;stroke-linecap:round;stroke-linejoin:round;stroke-dasharray:none;stroke-opacity:0.994937"
     id="path141"
     cx="129.74332"
     cy="239.38797"
     r="2.822366" />
  <ellipse
     style="fill:#d3acf1;fill-opacity:1;stroke:none;stroke-width:0.799999;stroke-linecap:round;stroke-linejoin:round;stroke-dasharray:none;stroke-opacity:0.994937"
     id="path142"
     cx="168.84242"
     cy="157.45383"
     rx="4.2899156"
     ry="2.6513135" />
  <ellipse
     style="fill:#d3acf1;fill-opacity:1;stroke:none;stroke-width:0.799999;stroke-linecap:round;stroke-linejoin:round;stroke-dasharray:none;stroke-opacity:0.994937"
     id="path143"
     cx="183.19724"
     cy="168.82881"
     rx="0.85526246"
     ry="1.7105249" />
  <circle
     style="fill:#d3acf1;fill-opacity:1;stroke:none;stroke-width:0.799999;stroke-linecap:round;stroke-linejoin:round;stroke-dasharray:none;stroke-opacity:0.994937"
     id="path144"
     cx="187.38802"
     cy="179.51959"
     r="2.4802613" />
  <circle
     style="fill:#d3acf1;fill-opacity:1;stroke:none;stroke-width:0.799999;stroke-linecap:round;stroke-linejoin:round;stroke-dasharray:none;stroke-opacity:0.994937"
     id="path145"
     cx="190.55247"
     cy="193.80247"
     r="2.5657873" />
  <ellipse
     style="fill:#d3acf1;fill-opacity:1;stroke:none;stroke-width:0.799999;stroke-linecap:round;stroke-linejoin:round;stroke-dasharray:none;stroke-opacity:0.994937"
     id="path146"
     cx="193.37483"
     cy="213.7235"
     rx="2.4802613"
     ry="4.0131469" />
  <circle
     style="fill:#d3acf1;fill-opacity:1;stroke:none;stroke-width:0.799999;stroke-linecap:round;stroke-linejoin:round;stroke-dasharray:none;stroke-opacity:0.994937"
     id="path147"
     cx="196.88142"
     cy="238.78928"
     r="2.3947351" />
  <ellipse
     style="fill:#d3acf1;fill-opacity:1;stroke:none;stroke-width:0.799999;stroke-linecap:round;stroke-linejoin:round;stroke-dasharray:none;stroke-opacity:0.994937"
     id="path148"
     cx="199.27615"
     cy="244.26295"
     rx="0.17105249"
     ry="1.026315" />
  <ellipse
     style="fill:#d3acf1;fill-opacity:1;stroke:none;stroke-width:0.799999;stroke-linecap:round;stroke-linejoin:round;stroke-dasharray:none;stroke-opacity:0.994937"
     id="path149"
     cx="202.44063"
     cy="258.39316"
     rx="1.9671037"
     ry="3.1828408" />
  <ellipse
     style="fill:#d3acf1;fill-opacity:1;stroke:none;stroke-width:0.799999;stroke-linecap:round;stroke-linejoin:round;stroke-dasharray:none;stroke-opacity:0.994937"
     id="path150"
     cx="192.09195"
     cy="268.38138"
     rx="2.0526299"
     ry="2.9078925" />
  <ellipse
     style="fill:#d3acf1;fill-opacity:1;stroke:none;stroke-width:0.799999;stroke-linecap:round;stroke-linejoin:round;stroke-dasharray:none;stroke-opacity:0.994937"
     id="path151"
     cx="172.0788"
     cy="179.09195"
     rx="2.5657873"
     ry="3.4210498" />
  <ellipse
     style="fill:#d3acf1;fill-opacity:1;stroke:none;stroke-width:0.799999;stroke-linecap:round;stroke-linejoin:round;stroke-dasharray:none;stroke-opacity:0.994937"
     id="path152"
     cx="148.81567"
     cy="154.28935"
     rx="1.026315"
     ry="0.85526246" />
  <ellipse
     style="fill:#d3acf1;fill-opacity:1;stroke:none;stroke-width:0.799999;stroke-linecap:round;stroke-linejoin:round;stroke-dasharray:none;stroke-opacity:0.994937"
     id="path153"
     cx="162.32881"
     cy="143.42752"
     rx="3.0789449"
     ry="1.9671037" />
  <ellipse
     style="fill:#d3acf1;fill-opacity:1;stroke:none;stroke-width:0.799999;stroke-linecap:round;stroke-linejoin:round;stroke-dasharray:none;stroke-opacity:0.994937"
     id="path154"
     cx="188.3288"
     cy="145.48015"
     rx="2.3947351"
     ry="3.5065758" />
  <ellipse
     style="fill:#d3acf1;fill-opacity:1;stroke:none;stroke-width:0.799999;stroke-linecap:round;stroke-linejoin:round;stroke-dasharray:none;stroke-opacity:0.994937"
     id="path155"
     cx="198.84853"
     cy="160.27618"
     rx="1.2828937"
     ry="2.3947351" />
  <ellipse
     style="fill:#d3acf1;fill-opacity:1;stroke:none;stroke-width:0.799999;stroke-linecap:round;stroke-linejoin:round;stroke-dasharray:none;stroke-opacity:0.994937"
     id="path156"
     cx="79.881516"
     cy="159.50644"
     rx="2.0526299"
     ry="1.2828937" />
  <ellipse
     style="fill:#d3acf1;fill-opacity:1;stroke:none;stroke-width:0.799999;stroke-linecap:round;stroke-linejoin:round;stroke-dasharray:none;stroke-opacity:0.994937"
     id="path157"
     cx="90.315712"
     cy="171.48013"
     rx="4.1052599"
     ry="3.3355236" />
  <text
     xml:space="preserve"
     style="font-size:5.15961px;fill:#ffffff;fill-opacity:1;stroke:none;stroke-width:1.30006;stroke-linecap:round;stroke-linejoin:round;stroke-dasharray:none;stroke-opacity:0.994937"
     x="11.269619"
     y="64.626678"
     id="text157"><tspan
       sodipodi:role="line"
       id="tspan157"
       style="fill:#ffffff;fill-opacity:1;stroke-width:1.30006"
       x="11.269619"
       y="64.626678">Trees line the playing area. They'll have crystals that glow </tspan><tspan
       sodipodi:role="line"
       style="fill:#ffffff;fill-opacity:1;stroke-width:1.30006"
       x="11.269619"
       y="71.076187"
       id="tspan158">dimly when you approachbut you won't charge them up</tspan></text>
  <path
     style="fill:none;fill-opacity:1;stroke:#d3acf1;stroke-width:0.799999;stroke-linecap:round;stroke-linejoin:round;stroke-dasharray:none;stroke-opacity:0.99607843"
     d="m 40.197336,79.026252 c 0,0 -12.828937,73.039418 24.631559,101.092028"
     id="path158" />
  <path
     style="fill:none;fill-opacity:1;stroke:#d3acf1;stroke-width:0.799999;stroke-linecap:round;stroke-linejoin:round;stroke-dasharray:none;stroke-opacity:0.996078"
     d="m 61.578899,167.46039 3.292761,12.74341 -12.31578,1.06908"
     id="path159" />
</svg>
